<svg width="248" height="340" viewBox="0 0 248 230" fill="none" xmlns="http://www.w3.org/2000/svg">
<path d="M230.685 213.923C235.489 208.457 258.112 181.553 242.032 177.117C229.956 173.786 228.61 192.114 229.016 204.413C227.082 196.126 223.329 186.447 216.735 190.718C207.232 196.873 225.038 210.494 229.69 213.838C229.766 214.518 229.816 214.896 229.816 214.896C229.816 214.896 230.007 214.688 230.347 214.305C230.613 214.491 230.761 214.591 230.761 214.591C230.761 214.591 230.736 214.35 230.685 213.923Z" fill="#DFE1E6"/>
<path d="M19.1264 228.885C24.6287 222.625 50.5396 191.811 32.1234 186.731C18.2916 182.916 16.7506 203.907 17.2148 217.993C15 208.503 10.7015 197.416 3.14952 202.308C-7.73439 209.357 12.6595 224.959 17.9867 228.788C18.0742 229.567 18.1319 230 18.1319 230C18.1319 230 18.3504 229.762 18.7399 229.323C19.0442 229.536 19.2135 229.651 19.2135 229.651C19.2135 229.651 19.1852 229.375 19.1264 228.885Z" fill="#DFE1E6"/>
<path d="M47.7674 18.3605C47.2906 18.3611 46.8336 18.5507 46.4965 18.8878C46.1594 19.2249 45.9698 19.6819 45.9692 20.1587V212.559C45.9698 213.036 46.1594 213.493 46.4965 213.83C46.8336 214.167 47.2906 214.357 47.7674 214.357H202.766C203.243 214.357 203.7 214.167 204.037 213.83C204.374 213.493 204.564 213.036 204.564 212.559V20.1587C204.564 19.6819 204.374 19.2249 204.037 18.8878C203.7 18.5507 203.243 18.3611 202.766 18.3605H47.7674Z" fill="#DFE1E6"/>
<path d="M178.132 102.378H72.4018C71.6864 102.378 71.0004 102.094 70.4946 101.588C69.9888 101.082 69.7046 100.396 69.7046 99.681C69.7046 98.9657 69.9888 98.2796 70.4946 97.7738C71.0004 97.268 71.6864 96.9838 72.4018 96.9838H178.132C178.847 96.9838 179.533 97.268 180.039 97.7738C180.545 98.2796 180.829 98.9657 180.829 99.681C180.829 100.396 180.545 101.082 180.039 101.588C179.533 102.094 178.847 102.378 178.132 102.378Z" fill="white"/>
<path d="M179.04 52.1205H108.895C107.907 52.1205 107.106 50.9129 107.106 49.4233C107.106 47.9337 107.907 46.7261 108.895 46.7261H179.04C180.028 46.7261 180.829 47.9337 180.829 49.4233C180.829 50.9129 180.028 52.1205 179.04 52.1205Z" fill="white"/>
<path d="M179.04 67.5845H108.895C107.907 67.5845 107.106 66.3769 107.106 64.8873C107.106 63.3977 107.907 62.1901 108.895 62.1901H179.04C180.028 62.1901 180.829 63.3977 180.829 64.8873C180.829 66.3769 180.028 67.5845 179.04 67.5845Z" fill="white"/>
<path d="M178.132 119.82H72.4018C71.6864 119.82 71.0004 119.536 70.4946 119.03C69.9888 118.524 69.7046 117.838 69.7046 117.123C69.7046 116.408 69.9888 115.722 70.4946 115.216C71.0004 114.71 71.6864 114.426 72.4018 114.426H178.132C178.847 114.426 179.533 114.71 180.039 115.216C180.545 115.722 180.829 116.408 180.829 117.123C180.829 117.838 180.545 118.524 180.039 119.03C179.533 119.536 178.847 119.82 178.132 119.82Z" fill="white"/>
<path d="M178.132 137.262H72.4018C71.6864 137.262 71.0004 136.978 70.4946 136.472C69.9888 135.966 69.7046 135.28 69.7046 134.565C69.7046 133.85 69.9888 133.163 70.4946 132.658C71.0004 132.152 71.6864 131.868 72.4018 131.868H178.132C178.847 131.868 179.533 132.152 180.039 132.658C180.545 133.163 180.829 133.85 180.829 134.565C180.829 135.28 180.545 135.966 180.039 136.472C179.533 136.978 178.847 137.262 178.132 137.262Z" fill="white"/>
<path d="M178.132 154.704H72.4018C71.6864 154.704 71.0004 154.42 70.4946 153.914C69.9888 153.408 69.7046 152.722 69.7046 152.007C69.7046 151.292 69.9888 150.606 70.4946 150.1C71.0004 149.594 71.6864 149.31 72.4018 149.31H178.132C178.847 149.31 179.533 149.594 180.039 150.1C180.545 150.606 180.829 151.292 180.829 152.007C180.829 152.722 180.545 153.408 180.039 153.914C179.533 154.42 178.847 154.704 178.132 154.704Z" fill="white"/>
<path d="M178.132 172.146H72.4018C71.6864 172.146 71.0004 171.862 70.4946 171.356C69.9888 170.85 69.7046 170.164 69.7046 169.449C69.7046 168.733 69.9888 168.047 70.4946 167.541C71.0004 167.036 71.6864 166.751 72.4018 166.751H178.132C178.847 166.751 179.533 167.036 180.039 167.541C180.545 168.047 180.829 168.733 180.829 169.449C180.829 170.164 180.545 170.85 180.039 171.356C179.533 171.862 178.847 172.146 178.132 172.146Z" fill="white"/>
<path d="M178.132 189.588H72.4018C71.6864 189.588 71.0004 189.304 70.4946 188.798C69.9888 188.292 69.7046 187.606 69.7046 186.891C69.7046 186.175 69.9888 185.489 70.4946 184.983C71.0004 184.478 71.6864 184.193 72.4018 184.193H178.132C178.847 184.193 179.533 184.478 180.039 184.983C180.545 185.489 180.829 186.175 180.829 186.891C180.829 187.606 180.545 188.292 180.039 188.798C179.533 189.304 178.847 189.588 178.132 189.588Z" fill="white"/>
<path d="M83.9098 71.5403C91.7552 71.5403 98.1151 65.1804 98.1151 57.335C98.1151 49.4897 91.7552 43.1298 83.9098 43.1298C76.0645 43.1298 69.7046 49.4897 69.7046 57.335C69.7046 65.1804 76.0645 71.5403 83.9098 71.5403Z" fill="white"/>
<path d="M199.653 41.4713C211.105 41.4713 220.388 32.1877 220.388 20.7357C220.388 9.28367 211.105 0 199.653 0C188.201 0 178.917 9.28367 178.917 20.7357C178.917 32.1877 188.201 41.4713 199.653 41.4713Z" fill="#081b33"/>
<path d="M191.013 19.3674C190.65 19.3674 190.302 19.5115 190.045 19.7681C189.789 20.0248 189.645 20.3728 189.645 20.7357C189.645 21.0986 189.789 21.4467 190.045 21.7033C190.302 21.9599 190.65 22.1041 191.013 22.1041H198.284V29.3755C198.284 29.7383 198.429 30.0864 198.685 30.343C198.942 30.5996 199.29 30.7437 199.653 30.7437C200.016 30.7437 200.364 30.5996 200.62 30.343C200.877 30.0864 201.021 29.7383 201.021 29.3755V22.1041H208.293C208.655 22.1041 209.003 21.9599 209.26 21.7033C209.517 21.4467 209.661 21.0986 209.661 20.7357C209.661 20.3728 209.517 20.0248 209.26 19.7681C209.003 19.5115 208.655 19.3674 208.293 19.3674H201.021V12.0958C201.021 11.7329 200.877 11.3849 200.62 11.1283C200.364 10.8717 200.016 10.7275 199.653 10.7275C199.29 10.7275 198.942 10.8717 198.685 11.1283C198.429 11.3849 198.284 11.7329 198.284 12.0958V19.3674H191.013Z" fill="white"/>
</svg>
